<?xml version="1.0" standalone="no"?>
<!DOCTYPE svg PUBLIC "-//W3C//DTD SVG 20010904//EN"
 "http://www.w3.org/TR/2001/REC-SVG-20010904/DTD/svg10.dtd">
<svg version="1.0" xmlns="http://www.w3.org/2000/svg"
 width="1200.000000pt" height="1200.000000pt" viewBox="0 0 1200.000000 1200.000000"
 preserveAspectRatio="xMidYMid meet">
<metadata>
Created by potrace 1.11, written by Peter Selinger 2001-2013
</metadata>
<g transform="translate(0.000000,1200.000000) scale(0.100000,-0.100000)"
fill="#000000" stroke="none">
<path d="M1895 9379 c-121 -42 -209 -120 -262 -235 l-28 -59 0 -3085 0 -3085
28 -59 c38 -82 90 -142 161 -187 34 -21 72 -46 86 -56 14 -10 30 -18 37 -18 7
0 19 -9 27 -20 14 -18 15 -18 16 -2 0 23 20 22 20 -2 0 -15 5 -18 23 -14 18 4
19 3 7 -7 -12 -9 -10 -11 12 -7 15 2 29 0 30 -5 2 -5 13 -10 26 -11 12 -1 22
-8 22 -17 0 -13 1 -13 10 0 6 10 10 11 10 3 0 -7 5 -13 11 -13 6 0 9 6 6 13
-3 8 1 14 8 14 8 0 13 -5 12 -11 -1 -6 9 -10 23 -10 14 1 28 -3 32 -9 8 -13
108 -18 108 -6 0 4 -8 10 -17 12 -17 4 -17 5 0 6 10 0 20 -6 23 -14 8 -21 63
-19 86 2 15 13 19 14 16 3 -2 -10 10 -14 52 -16 30 -1 49 1 43 3 -22 8 -14 25
8 18 14 -5 25 -2 30 6 6 10 9 10 9 2 0 -7 -8 -17 -17 -22 -16 -9 -16 -10 5
-11 12 0 22 4 22 9 0 14 29 21 36 9 5 -7 2 -8 -6 -3 -9 5 -11 4 -6 -3 5 -9 14
-7 32 4 23 16 24 16 17 -2 -6 -18 -6 -18 14 -2 24 21 39 23 46 5 8 -21 147
-21 162 0 10 13 14 13 20 3 6 -9 4 -11 -6 -5 -8 5 -11 4 -6 -1 10 -11 287 -12
287 -2 0 5 -5 8 -12 8 -6 0 -8 3 -4 7 4 5 13 0 20 -9 10 -13 25 -17 62 -15 29
1 48 7 47 13 -1 6 5 11 13 11 8 0 13 -6 10 -12 -2 -6 2 -12 10 -12 8 0 14 6
14 13 0 7 5 16 12 20 7 5 8 3 3 -6 -6 -10 -4 -12 8 -7 9 3 19 2 23 -4 4 -6 11
-6 20 2 8 6 17 9 21 5 3 -3 1 -6 -6 -6 -7 0 -9 -4 -6 -10 10 -16 47 -12 61 8
12 14 13 14 8 1 -4 -14 3 -16 52 -15 35 1 59 6 62 14 6 18 39 15 46 -5 5 -12
9 -14 18 -5 7 7 19 12 28 11 10 0 9 -3 -5 -9 -14 -6 -15 -9 -5 -9 9 -1 21 4
28 11 9 9 12 9 12 -2 0 -9 5 -8 15 6 14 17 15 18 9 0 -5 -14 -3 -17 12 -14 10
2 18 9 17 14 -3 14 80 9 85 -5 4 -12 43 -15 41 -3 -3 19 2 25 11 12 6 -10 10
-11 10 -2 0 6 5 12 11 12 5 0 8 -4 4 -9 -3 -5 0 -13 6 -17 6 -3 15 0 20 7 4 8
25 14 46 14 21 1 43 4 49 8 7 4 11 0 10 -10 -1 -14 9 -17 54 -19 30 -1 61 4
69 10 10 8 13 8 8 0 -7 -12 50 -17 67 -6 15 9 36 11 36 4 0 -11 84 -9 92 2 5
8 8 8 8 1 0 -13 175 -14 187 -1 5 6 2 6 -7 1 -8 -5 -12 -4 -7 0 13 15 47 16
41 1 -4 -9 3 -13 20 -13 16 0 23 4 19 11 -4 6 1 5 11 -3 9 -8 16 -10 15 -5 -4
22 2 26 14 10 10 -14 21 -17 45 -11 19 4 29 11 26 17 -4 7 -2 8 5 4 6 -4 9
-11 6 -16 -3 -5 22 -8 55 -7 58 2 78 11 43 20 -17 4 -17 5 0 6 10 0 20 -6 23
-14 8 -21 63 -19 86 2 15 13 19 14 16 3 -2 -10 10 -14 52 -16 30 -1 49 1 43 3
-22 8 -14 25 8 18 14 -5 25 -2 30 6 6 10 9 10 9 2 0 -7 -8 -17 -17 -22 -16 -9
-16 -10 5 -11 12 0 22 4 22 9 0 14 29 21 36 9 5 -7 2 -8 -6 -3 -9 5 -11 4 -6
-3 5 -9 14 -7 32 4 23 16 24 16 17 -2 -6 -18 -6 -18 14 -2 24 21 39 23 46 5 8
-21 147 -21 162 0 10 13 14 13 20 3 6 -9 4 -11 -6 -5 -8 5 -11 4 -6 -1 10 -11
287 -12 287 -2 0 5 -5 8 -12 8 -6 0 -8 3 -4 7 4 5 13 0 20 -9 10 -13 25 -17
62 -15 29 1 48 7 47 13 -1 6 5 11 13 11 8 0 13 -6 10 -12 -2 -6 2 -12 10 -12
8 0 14 6 14 13 0 7 5 16 12 20 7 5 8 3 3 -6 -6 -10 -4 -12 8 -7 9 3 19 2 23
-4 4 -6 11 -6 20 2 8 6 17 9 21 5 3 -3 1 -6 -6 -6 -7 0 -9 -4 -6 -10 10 -16
47 -12 61 8 12 14 13 14 8 1 -4 -14 3 -16 52 -15 35 1 59 6 62 14 6 18 39 15
46 -5 5 -12 9 -14 18 -5 7 7 19 12 28 11 10 0 9 -3 -5 -9 -14 -6 -15 -9 -5 -9
9 -1 21 4 28 11 9 9 12 9 12 -2 0 -9 5 -8 15 6 14 17 15 18 9 0 -5 -14 -3 -17
12 -14 10 2 18 9 17 14 -3 14 80 9 85 -5 4 -12 43 -15 41 -3 -3 19 2 25 11 12
6 -10 10 -11 10 -2 0 6 5 12 11 12 5 0 8 -4 4 -9 -3 -5 0 -13 6 -17 6 -3 15 0
20 7 4 8 25 14 46 14 21 1 43 4 49 8 7 4 11 0 10 -10 -1 -14 9 -17 54 -19 30
-1 61 4 69 10 10 8 13 8 8 0 -7 -12 50 -17 67 -6 15 9 36 11 36 4 0 -11 84 -9
92 2 5 8 8 8 8 1 0 -13 175 -14 187 -1 5 6 2 6 -7 1 -8 -5 -12 -4 -7 0 13 15
47 16 41 1 -4 -9 3 -13 20 -13 16 0 23 4 19 11 -4 6 1 5 11 -3 9 -8 16 -10 15
-5 -4 22 2 26 14 10 10 -14 21 -17 45 -11 19 4 29 11 26 17 -4 7 -2 8 5 4 6
-4 9 -11 6 -16 -3 -5 22 -8 55 -7 58 2 78 11 43 20 -17 4 -17 5 0 6 10 0 20
-6 23 -14 8 -21 63 -19 86 2 15 13 19 14 16 3 -2 -10 10 -14 52 -16 30 -1 49
1 43 3 -22 8 -14 25 8 18 14 -5 25 -2 30 6 6 10 9 10 9 2 0 -7 -8 -17 -17 -22
-16 -9 -16 -10 5 -11 12 0 22 4 22 9 0 14 29 21 36 9 5 -7 2 -8 -6 -3 -9 5
-11 4 -6 -3 5 -9 14 -7 32 4 23 16 24 16 17 -2 -6 -18 -6 -18 14 -2 24 21 39
23 46 5 8 -21 147 -21 162 0 10 13 14 13 20 3 6 -9 4 -11 -6 -5 -8 5 -11 4 -6
-1 10 -11 287 -12 287 -2 0 5 -5 8 -12 8 -6 0 -8 3 -4 7 4 5 13 0 20 -9 10
-13 25 -17 62 -15 29 1 48 7 47 13 -1 6 5 11 13 11 8 0 13 -6 10 -12 -2 -6 2
-12 10 -12 8 0 14 6 14 13 0 7 5 16 12 20 7 5 8 3 3 -6 -6 -10 -4 -12 8 -7 9
3 19 2 23 -4 4 -6 11 -6 20 2 8 6 17 9 21 5 3 -3 1 -6 -6 -6 -7 0 -9 -4 -6
-10 10 -16 47 -12 61 8 12 14 13 14 8 1 -4 -14 3 -16 52 -15 35 1 59 6 62 14
6 18 39 15 46 -5 5 -12 9 -14 18 -5 7 7 19 12 28 11 10 0 9 -3 -5 -9 -14 -6
-15 -9 -5 -9 9 -1 21 4 28 11 9 9 12 9 12 -2 0 -9 5 -8 15 6 14 17 15 18 9 0
-5 -14 -3 -17 12 -14 10 2 18 9 17 14 -3 14 80 9 85 -5 4 -12 43 -15 41 -3 -3
19 2 25 11 12 6 -10 10 -11 10 -2 0 6 5 12 11 12 5 0 8 -4 4 -9 -3 -5 0 -13 6
-17 6 -3 15 0 20 7 4 8 25 14 46 14 21 1 43 4 49 8 7 4 11 0 10 -10 -1 -14 9
-17 54 -19 30 -1 61 4 69 10 10 8 13 8 8 0 -7 -12 50 -17 67 -6 15 9 36 11 36
4 0 -11 84 -9 92 2 5 8 8 8 8 1 0 -13 175 -14 187 -1 5 6 2 6 -7 1 -8 -5 -12
-4 -7 0 14 16 47 16 41 0 -7 -17 33 -18 55 -1 7 6 19 11 25 12 6 0 17 2 24 2
7 1 10 8 7 15 -4 6 1 3 9 -7 13 -16 19 -17 28 -8 7 7 27 12 46 12 19 0 31 4
27 10 -3 6 3 10 14 10 31 0 51 11 51 29 0 14 2 14 10 1 8 -13 12 -12 25 8 9
12 20 20 25 17 5 -3 11 -1 15 5 3 5 36 24 73 41 87 42 163 118 205 206 l32 68
3 3070 c2 3421 9 3105 -68 3224 -50 77 -139 144 -229 171 -64 20 -90 20 -874
18 l-808 -3 273 -264 c150 -144 280 -274 289 -287 9 -13 20 -21 25 -16 4 4 2
-1 -5 -10 -12 -16 -9 -22 23 -54 20 -20 36 -42 36 -50 0 -8 7 -17 15 -20 8 -4
15 -12 15 -20 0 -7 6 -11 14 -8 8 3 17 0 22 -7 4 -8 3 -10 -4 -5 -17 10 -15
-13 3 -30 14 -14 19 -11 16 9 -1 5 3 6 8 3 5 -3 7 -15 4 -25 -5 -19 20 -34 67
-40 6 0 16 -13 22 -28 18 -42 42 -70 55 -66 6 2 15 -1 19 -8 4 -8 3 -9 -4 -5
-7 4 -12 2 -12 -3 0 -6 7 -11 15 -11 9 0 12 -6 8 -17 -5 -12 -2 -15 9 -10 12
4 14 1 11 -13 -3 -10 3 -23 15 -31 10 -8 22 -27 26 -43 7 -28 44 -88 59 -94 4
-2 7 -8 7 -13 0 -6 -6 -7 -12 -3 -10 6 -10 5 -1 -7 10 -12 10 -18 0 -28 -9
-10 -9 -11 4 -6 19 7 35 -10 19 -20 -6 -4 -7 -11 -4 -17 4 -6 10 -5 16 3 8 11
9 11 5 -1 -3 -13 -60 -15 -416 -18 l-413 -3 -47 42 c-25 24 -177 169 -336 323
-456 441 -815 787 -881 849 l-61 57 -664 0 -664 0 95 -93 c52 -51 184 -179
293 -285 118 -115 195 -197 191 -204 -5 -7 -3 -8 6 -3 9 5 10 2 5 -15 -6 -20
-5 -21 14 -11 12 7 21 8 21 2 0 -5 -5 -11 -12 -13 -8 -3 -8 -9 1 -24 12 -18
12 -18 7 0 -6 17 -5 18 16 3 16 -10 22 -23 20 -40 -1 -14 3 -29 9 -33 8 -5 9
-3 4 6 -5 9 -4 11 4 6 6 -4 9 -12 5 -17 -8 -14 16 -41 32 -35 7 3 18 -3 26
-12 9 -11 10 -14 1 -8 -7 4 -13 2 -13 -3 0 -10 14 -15 33 -12 4 0 7 -8 7 -18
0 -11 5 -23 12 -27 7 -5 8 -3 3 5 -6 10 -3 10 13 0 10 -7 19 -19 18 -28 -1
-11 7 -16 22 -15 16 0 21 -4 18 -13 -3 -8 5 -25 19 -37 14 -13 25 -28 25 -33
0 -5 10 -18 22 -29 12 -10 18 -13 13 -5 -5 10 -4 12 3 7 7 -4 12 -16 12 -27 0
-11 4 -18 9 -14 5 3 13 0 17 -6 4 -8 3 -9 -4 -5 -16 10 -15 0 2 -32 8 -15 17
-35 20 -44 3 -10 9 -18 14 -18 11 0 9 30 -2 50 -7 12 -6 13 4 3 7 -7 15 -36
16 -65 3 -47 10 -93 14 -93 1 0 3 -8 5 -17 3 -17 -21 -18 -402 -18 l-406 0
-46 42 c-25 23 -170 161 -321 308 -458 443 -832 803 -896 863 l-61 57 -664 0
-664 -1 120 -116 c66 -64 198 -192 293 -284 130 -126 172 -173 172 -192 0 -13
9 -32 20 -42 11 -10 18 -21 15 -25 -2 -4 7 -18 22 -31 24 -22 26 -22 20 -4 -7
19 -7 19 8 1 8 -10 12 -24 8 -29 -4 -6 0 -8 10 -4 10 3 17 2 17 -3 0 -5 -8
-11 -17 -13 -14 -4 -12 -5 5 -6 12 0 22 -6 22 -12 0 -5 -6 -7 -12 -3 -9 5 -8
2 1 -10 8 -9 21 -14 29 -11 9 3 12 0 9 -8 -3 -7 4 -19 15 -26 17 -11 22 -10
30 1 6 9 7 6 3 -9 -4 -16 0 -25 15 -33 11 -6 25 -8 31 -4 6 3 10 0 8 -7 -4
-34 0 -42 16 -29 9 7 18 10 22 6 3 -3 0 -6 -8 -6 -10 -1 -8 -5 5 -15 11 -8 16
-15 11 -15 -4 0 -1 -8 8 -18 10 -10 14 -22 10 -25 -3 -4 5 -7 18 -8 13 0 18
-3 12 -6 -19 -7 -15 -27 8 -41 12 -8 18 -9 14 -3 -3 6 -1 11 4 11 14 0 14 -13
-1 -28 -9 -9 -8 -12 4 -12 9 0 20 -5 24 -12 5 -7 3 -8 -6 -3 -9 6 -11 4 -6 -4
5 -7 14 -10 22 -7 11 4 11 2 2 -14 -10 -16 -10 -22 1 -32 9 -8 12 -9 7 -1 -3
6 -3 14 2 17 5 3 9 0 9 -7 0 -7 4 -20 8 -30 6 -13 3 -16 -9 -11 -20 8 -20 0 0
-21 9 -9 17 -31 19 -50 l2 -34 -407 -1 -407 0 -304 292 c-167 161 -463 447
-658 636 l-355 342 -265 0 c-241 -1 -272 -3 -326 -21z m7138 -583 c4 -10 1
-13 -8 -9 -8 3 -12 9 -9 14 7 12 11 11 17 -5z m-4823 -20 c0 -3 -4 -8 -10 -11
-5 -3 -10 -1 -10 4 0 6 5 11 10 11 6 0 10 -2 10 -4z m5204 -462 c3 -8 2 -12
-4 -9 -6 3 -10 10 -10 16 0 14 7 11 14 -7z m-4114 -1929 c0 -5 4 -4 9 4 5 8
16 11 30 6 12 -3 19 -10 16 -15 -3 -4 8 -10 23 -13 18 -4 31 -1 40 11 10 13
12 13 13 1 1 -8 1 -18 0 -23 -1 -5 7 -6 19 -3 11 3 18 2 15 -3 -3 -4 5 -10 16
-13 14 -4 19 -1 16 7 -3 7 1 13 8 13 7 0 11 -6 8 -14 -3 -7 0 -13 6 -13 6 0
11 4 11 8 0 5 7 9 15 9 11 0 12 -4 5 -11 -17 -17 -11 -29 7 -15 14 12 16 12 8
0 -6 -11 -4 -13 8 -8 10 4 17 2 17 -4 0 -6 7 -9 14 -6 10 4 13 1 9 -9 -3 -8 1
-15 11 -15 9 -1 22 -2 29 -3 6 -1 15 -9 19 -19 5 -10 13 -15 19 -11 6 3 15 1
19 -5 4 -7 16 -13 27 -14 12 0 19 -6 16 -14 -3 -8 2 -11 16 -8 13 2 21 -1 21
-10 0 -16 36 -39 49 -31 13 8 62 -34 55 -46 -5 -7 0 -9 14 -6 12 4 20 3 17 -2
-3 -4 2 -13 10 -20 9 -8 15 -9 15 -2 0 6 9 10 19 9 11 0 17 -5 14 -10 -3 -4 4
-11 15 -14 11 -2 23 -14 26 -26 4 -17 8 -19 18 -9 16 16 25 15 32 -4 6 -15 4
-15 -11 -3 -17 13 -17 12 -4 -4 10 -13 22 -16 38 -12 19 4 23 2 21 -12 -2 -15
3 -18 32 -16 19 1 29 -1 23 -3 -21 -9 -15 -24 10 -24 15 0 18 -3 9 -8 -8 -6
-1 -13 23 -22 19 -8 35 -18 35 -23 0 -5 11 -6 24 -3 18 4 29 1 39 -14 8 -12
20 -18 30 -15 8 4 18 1 23 -6 5 -8 3 -10 -7 -4 -8 4 -4 -2 9 -14 15 -15 29
-20 42 -16 12 4 20 2 20 -5 0 -6 -6 -8 -12 -4 -7 4 -3 -3 9 -15 12 -11 29 -21
38 -21 8 0 15 -4 15 -10 0 -5 7 -7 15 -4 8 4 15 1 15 -5 0 -7 8 -14 18 -18 9
-3 27 -15 40 -27 20 -17 24 -18 32 -6 5 8 10 12 11 8 1 -5 2 -11 3 -15 4 -22
20 -34 40 -29 11 3 28 1 36 -5 11 -8 9 -9 -9 -4 -21 6 -22 5 -10 -8 8 -8 17
-13 21 -11 4 2 10 -1 13 -7 4 -5 13 -8 21 -5 9 3 14 -1 15 -12 0 -11 2 -13 6
-4 4 10 9 7 20 -8 8 -12 21 -19 29 -16 8 3 14 1 14 -5 0 -6 7 -9 14 -6 9 4 13
1 10 -7 -7 -18 32 -51 42 -35 5 8 3 10 -7 4 -8 -5 -11 -4 -6 1 11 12 22 7 22
-8 0 -7 6 -14 13 -14 29 -3 32 -4 31 -11 -3 -21 3 -24 18 -12 11 10 14 10 9 2
-4 -7 -3 -13 3 -13 5 0 13 -9 16 -21 4 -12 13 -18 20 -15 9 3 12 0 8 -10 -3
-8 1 -14 11 -14 10 0 13 -5 9 -17 -5 -13 -2 -15 11 -10 13 5 19 1 23 -13 3
-11 10 -20 15 -20 5 0 17 -8 26 -17 16 -16 16 -16 0 -10 -10 3 -18 2 -18 -3 0
-6 5 -10 11 -10 5 0 7 -5 4 -10 -8 -13 17 -8 28 5 4 6 5 -2 1 -18 -4 -18 0
-36 11 -53 9 -15 13 -24 7 -20 -5 3 -12 -2 -14 -12 -3 -11 -93 -70 -224 -147
-121 -71 -255 -149 -299 -175 -268 -158 -1170 -684 -1270 -742 -128 -75 -185
-95 -229 -84 -40 10 -82 55 -95 102 -15 54 -15 2074 0 2074 5 0 7 -6 3 -12 -6
-9 -3 -9 9 0 9 8 15 19 14 25 -1 7 4 11 11 10 6 -2 12 3 12 10 0 7 -6 19 -12
26 -11 10 -10 11 5 6 9 -4 17 -11 17 -17 0 -5 5 -6 10 -3 16 10 12 25 -7 26
-15 0 -15 2 2 8 11 5 23 4 26 -1 6 -10 58 14 70 34 5 7 9 8 9 2 0 -14 60 -5
66 10 5 14 54 15 54 1z m-2900 -3875 c0 -5 -8 -10 -17 -10 -15 0 -16 2 -3 10
19 12 20 12 20 0z m534 -5 c-4 -8 -11 -12 -16 -9 -6 4 -5 10 3 15 19 12 19 11
13 -6z m1490 3 c-3 -4 -9 -8 -15 -8 -5 0 -9 4 -9 8 0 5 7 9 15 9 8 0 12 -4 9
-9z m536 2 c0 -5 -8 -10 -17 -10 -15 0 -16 2 -3 10 19 12 20 12 20 0z m534 -5
c-4 -8 -11 -12 -16 -9 -6 4 -5 10 3 15 19 12 19 11 13 -6z m1490 3 c-3 -4 -9
-8 -15 -8 -5 0 -9 4 -9 8 0 5 7 9 15 9 8 0 12 -4 9 -9z m536 2 c0 -5 -8 -10
-17 -10 -15 0 -16 2 -3 10 19 12 20 12 20 0z m534 -5 c-4 -8 -11 -12 -16 -9
-6 4 -5 10 3 15 19 12 19 11 13 -6z m1490 3 c-3 -4 -9 -8 -15 -8 -5 0 -9 4 -9
8 0 5 7 9 15 9 8 0 12 -4 9 -9z m-6580 -6 c3 -5 -1 -9 -9 -9 -8 0 -12 4 -9 9
3 4 7 8 9 8 2 0 6 -4 9 -8z m46 -2 c0 -5 -7 -7 -15 -4 -8 4 -15 8 -15 10 0 2
7 4 15 4 8 0 15 -4 15 -10z m100 0 c0 -5 -5 -10 -11 -10 -5 0 -7 5 -4 10 3 6
8 10 11 10 2 0 4 -4 4 -10z m120 0 c0 -5 -2 -10 -4 -10 -3 0 -8 5 -11 10 -3 6
-1 10 4 10 6 0 11 -4 11 -10z m870 0 c0 -5 -2 -10 -4 -10 -3 0 -8 5 -11 10 -3
6 -1 10 4 10 6 0 11 -4 11 -10z m45 0 c-3 -5 -12 -10 -18 -10 -7 0 -6 4 3 10
19 12 23 12 15 0z m569 2 c3 -5 -1 -9 -9 -9 -8 0 -12 4 -9 9 3 4 7 8 9 8 2 0
6 -4 9 -8z m810 0 c3 -5 -1 -9 -9 -9 -8 0 -12 4 -9 9 3 4 7 8 9 8 2 0 6 -4 9
-8z m46 -2 c0 -5 -7 -7 -15 -4 -8 4 -15 8 -15 10 0 2 7 4 15 4 8 0 15 -4 15
-10z m100 0 c0 -5 -5 -10 -11 -10 -5 0 -7 5 -4 10 3 6 8 10 11 10 2 0 4 -4 4
-10z m120 0 c0 -5 -2 -10 -4 -10 -3 0 -8 5 -11 10 -3 6 -1 10 4 10 6 0 11 -4
11 -10z m870 0 c0 -5 -2 -10 -4 -10 -3 0 -8 5 -11 10 -3 6 -1 10 4 10 6 0 11
-4 11 -10z m45 0 c-3 -5 -12 -10 -18 -10 -7 0 -6 4 3 10 19 12 23 12 15 0z
m569 2 c3 -5 -1 -9 -9 -9 -8 0 -12 4 -9 9 3 4 7 8 9 8 2 0 6 -4 9 -8z m810 0
c3 -5 -1 -9 -9 -9 -8 0 -12 4 -9 9 3 4 7 8 9 8 2 0 6 -4 9 -8z m46 -2 c0 -5
-7 -7 -15 -4 -8 4 -15 8 -15 10 0 2 7 4 15 4 8 0 15 -4 15 -10z m100 0 c0 -5
-5 -10 -11 -10 -5 0 -7 5 -4 10 3 6 8 10 11 10 2 0 4 -4 4 -10z m120 0 c0 -5
-2 -10 -4 -10 -3 0 -8 5 -11 10 -3 6 -1 10 4 10 6 0 11 -4 11 -10z m870 0 c0
-5 -2 -10 -4 -10 -3 0 -8 5 -11 10 -3 6 -1 10 4 10 6 0 11 -4 11 -10z m45 0
c-3 -5 -12 -10 -18 -10 -7 0 -6 4 3 10 19 12 23 12 15 0z"/>
<path d="M5840 6150 c0 -6 7 -10 15 -10 8 0 15 2 15 4 0 2 -7 6 -15 10 -8 3
-15 1 -15 -4z"/>
<path d="M6630 8741 c0 -5 5 -13 10 -16 6 -3 10 -2 10 4 0 5 -4 13 -10 16 -5
3 -10 2 -10 -4z"/>
<path d="M9210 8556 c0 -2 8 -10 18 -17 15 -13 16 -12 3 4 -13 16 -21 21 -21
13z"/>
<path d="M3605 2490 c-3 -5 -1 -10 4 -10 6 0 11 5 11 10 0 6 -2 10 -4 10 -3 0
-8 -4 -11 -10z"/>
<path d="M3779 2489 c-10 -6 -2 -9 25 -9 40 0 45 8 9 14 -11 3 -26 0 -34 -5z"/>
<path d="M3966 2491 c9 -9 34 -9 34 -1 0 5 -9 8 -20 7 -10 -1 -17 -3 -14 -6z"/>
<path d="M4015 2490 c-3 -5 -1 -10 4 -10 6 0 11 5 11 10 0 6 -2 10 -4 10 -3 0
-8 -4 -11 -10z"/>
<path d="M6165 2490 c-3 -5 -1 -10 4 -10 6 0 11 5 11 10 0 6 -2 10 -4 10 -3 0
-8 -4 -11 -10z"/>
<path d="M6339 2489 c-10 -6 -2 -9 25 -9 40 0 45 8 9 14 -11 3 -26 0 -34 -5z"/>
<path d="M6526 2491 c9 -9 34 -9 34 -1 0 5 -9 8 -20 7 -10 -1 -17 -3 -14 -6z"/>
<path d="M6575 2490 c-3 -5 -1 -10 4 -10 6 0 11 5 11 10 0 6 -2 10 -4 10 -3 0
-8 -4 -11 -10z"/>
<path d="M8725 2490 c-3 -5 -1 -10 4 -10 6 0 11 5 11 10 0 6 -2 10 -4 10 -3 0
-8 -4 -11 -10z"/>
<path d="M8899 2489 c-10 -6 -2 -9 25 -9 40 0 45 8 9 14 -11 3 -26 0 -34 -5z"/>
<path d="M9086 2491 c9 -9 34 -9 34 -1 0 5 -9 8 -20 7 -10 -1 -17 -3 -14 -6z"/>
<path d="M9135 2490 c-3 -5 -1 -10 4 -10 6 0 11 5 11 10 0 6 -2 10 -4 10 -3 0
-8 -4 -11 -10z"/>
</g>
</svg>
